<?xml version="1.0" encoding="utf-8"?>
<!-- Generator: Adobe Illustrator 21.1.0, SVG Export Plug-In . SVG Version: 6.00 Build 0)  -->
<svg version="1.1"
	 id="svg6588" inkscape:version="0.92.1 r15371" sodipodi:docname="Sarip-purewisdom1-LongerCucumber.svg" xmlns:cc="http://creativecommons.org/ns#" xmlns:dc="http://purl.org/dc/elements/1.1/" xmlns:inkscape="http://www.inkscape.org/namespaces/inkscape" xmlns:rdf="http://www.w3.org/1999/02/22-rdf-syntax-ns#" xmlns:sodipodi="http://sodipodi.sourceforge.net/DTD/sodipodi-0.dtd" xmlns:svg="http://www.w3.org/2000/svg"
	 xmlns="http://www.w3.org/2000/svg" xmlns:xlink="http://www.w3.org/1999/xlink" x="0px" y="0px" viewBox="0 0 181.4 432"
	 style="enable-background:new 0 0 181.4 432;" xml:space="preserve">
<style type="text/css">
	.st0{fill:#27AE60;}
	.st1{fill:url(#path13325-0-6-1-5_1_);}
	.st2{fill:#E2E531;}
	.st3{fill:#FFFFFF;}
	.st4{fill:none;stroke:#000000;stroke-width:1.524;}
</style>
<sodipodi:namedview  bordercolor="#666666" borderopacity="1.0" id="base" inkscape:current-layer="layer1" inkscape:cx="607.46926" inkscape:cy="296.71734" inkscape:document-units="mm" inkscape:pagecheckerboard="true" inkscape:pageopacity="0.0" inkscape:pageshadow="2" inkscape:window-height="705" inkscape:window-maximized="1" inkscape:window-width="1366" inkscape:window-x="-8" inkscape:window-y="-8" inkscape:zoom="0.35" pagecolor="#ffffff" showgrid="false">
	</sodipodi:namedview>
<g id="layer1" transform="translate(72.544021,-62.337029)" inkscape:groupmode="layer" inkscape:label="Layer 1">
	<path id="path13323-0-3-7-6-9" inkscape:connector-curvature="0" d="M72.9,62.5c-6.2,0.8-12.2,4.1-17.3,9.6
		c-6.7,7.3-11.8,18.5-14.2,33.4l0.1-0.3C25.4,167.9-47.1,377.7-69.3,440.9l0,0.1l0,0.1c-4.3,14.1-4.1,25.4-0.6,34.2
		c3.5,8.7,10.3,14.5,18.3,17.2c15.8,5.4,35.8-0.4,47.5-15.1l0,0c0,0,0.1-0.1,0.1-0.2c0,0,0.1,0,0.1-0.1l3-3.9l-0.1,0
		c10.5-13.2,21.1-35.5,31.9-63.8c11.9-31.2,23.8-69,34.6-107.1c21.6-76.3,38.8-153.9,42.7-183.6l0-0.2l0-0.2
		c0.1-16.6-3-29.7-8.2-39.1s-12.7-15.2-21-16.5C77,62.3,74.9,62.3,72.9,62.5L72.9,62.5z M77.9,69.9c5.5,0.9,11.2,4.8,15.6,12.8
		c4.4,7.9,7.4,19.7,7.3,35.2C97,146.6,79.9,224.3,58.4,300.2c-10.8,38-22.6,75.6-34.4,106.5S0.2,461.8-9.6,472.2l-0.3,0.4
		c-9.7,12.2-27.1,17-39.4,12.8c-6.2-2.1-11.1-6.2-13.8-12.9c-2.7-6.7-3.1-16.3,0.8-29.2c0,0,0,0,0,0C-40,379.9,32.2,171,48.7,107
		l0-0.2l0-0.2C51,92.8,55.7,83,61.1,77.1S72.4,69.1,77.9,69.9L77.9,69.9z"/>
	<path id="path13323-0-3-7-4" inkscape:connector-curvature="0" sodipodi:nodetypes="cccccc" class="st0" d="M-6.9,474.8
		c42.6-45.5,103.8-298.4,111.4-356.6c0.6-64.6-50.2-69.7-59.4-12.1c-16.3,63.4-88.7,272.8-110.9,336
		C-82.2,496.1-28.2,501.9-6.9,474.8L-6.9,474.8z"/>
	
		<linearGradient id="path13325-0-6-1-5_1_" gradientUnits="userSpaceOnUse" x1="-169.9071" y1="525.6953" x2="-171.5328" y2="516.0961" gradientTransform="matrix(-8.8861 -2.8097 2.8123 -8.878 -2908.7119 4253.9775)">
		<stop  offset="0" style="stop-color:#C3F13B"/>
		<stop  offset="1" style="stop-color:#C3F13B;stop-opacity:0"/>
	</linearGradient>
	<path id="path13325-0-6-1-5" inkscape:connector-curvature="0" sodipodi:nodetypes="ccccccccccccscccccccccc" class="st1" d="
		M81.6,67.1c9.5,3.2,18,13.9,21.3,32c-2.7-4-5.7-7.7-8.5-9.3c-7.2-3.9-9.9-5.8-9.9-5.8s9.4,11.7,9.9,14.2c0.5,2.5,0.6,4.1,0.6,4.1
		s-3.6-8.6-7.8-11.4C83,88.1,81.9,87,81.9,87c9.4,25,16.9,38.9,5.9,68.5c8.5-41.7-7.8-60-12.9-66.8c0.4,20.3,2.7,39.3-1.7,59.3
		c-2.4-18.5,2.9-41.5-5.6-59.2c-0.9-1.3-8.7,40.4-12,50.6c-3.2,10.2-5.9,13.9-5.9,13.9s4.8-30.9,5.9-40.3c1.2-9.4,5.9-27.2,5.9-27.2
		s-3.8,3.8-8.3,7.1c-1.9,1.4-4.7,4.9-7.4,8.6c0.8-4,1.9-7.6,3.1-11c4.4-4.3,9.1-9.4,9.1-9.4s-1.5-0.9-4.7,0.1
		C61.1,68.5,71.9,63.8,81.6,67.1L81.6,67.1z"/>
	
		<ellipse id="path13396-9-4-0-6-0" transform="matrix(0.9998 -2.056434e-02 2.056434e-02 0.9998 -1.5775 1.5341)" class="st2" cx="73.8" cy="77.5" rx="5" ry="3.7"/>
	<path id="path13396-9-4-0-6" inkscape:connector-curvature="0" class="st0" d="M73.7,73.3c1.5,0,2.8,0.4,3.8,1.1s1.7,1.8,1.7,2.9
		c0,1.2-0.6,2.3-1.6,3c-1,0.8-2.3,1.2-3.8,1.2c-1.5,0-2.8-0.4-3.8-1.1c-1-0.7-1.7-1.8-1.7-2.9c0-1.2,0.6-2.3,1.6-3
		C70.9,73.8,72.2,73.3,73.7,73.3L73.7,73.3z M73.7,74.3c-1.3,0-2.4,0.4-3.2,1.1c-0.8,0.6-1.2,1.4-1.2,2.2c0,0.8,0.5,1.6,1.3,2.2
		c0.8,0.6,2,0.9,3.3,0.9c1.3,0,2.4-0.4,3.2-1.1c0.8-0.6,1.2-1.4,1.2-2.2c0-0.8-0.5-1.6-1.3-2.2C76.2,74.6,75,74.3,73.7,74.3
		L73.7,74.3z"/>
	<path id="path13421-6-9-6-6-5" class="st3" d="M93.8,163.3c-10.5-4.2-22.4,0.9-26.6,11.4c-4.2,10.5,0.9,22.4,11.4,26.6
		s22.4-0.9,26.6-11.4C109.4,179.3,104.3,167.5,93.8,163.3z"/>
	<path id="path13421-6-9-6-6" inkscape:connector-curvature="0" d="M94.6,161.3c11.6,4.6,17.3,17.8,12.7,29.4
		c-4.6,11.6-17.8,17.3-29.4,12.6s-17.3-17.8-12.7-29.4C69.8,162.3,83,156.7,94.6,161.3z M93,165.3c-9.4-3.7-20,0.8-23.8,10.2
		c-3.7,9.4,0.8,20,10.2,23.8c9.4,3.7,20-0.8,23.8-10.2C107,179.6,102.4,169,93,165.3L93,165.3z"/>
	<path id="path13421-8-2-6-0-6" d="M87.4,170.2c-6.2-2.5-13.3,0.6-15.8,6.8s0.6,13.3,6.8,15.8c6.2,2.5,13.3-0.6,15.8-6.8
		C96.7,179.7,93.7,172.7,87.4,170.2z"/>
	
		<ellipse id="path13421-8-6-7-5-6-8" transform="matrix(0.3702 -0.929 0.929 0.3702 -120.8896 184.3087)" class="st3" cx="75.5" cy="181.3" rx="7.5" ry="7.5"/>
	<path id="path13421-7-4-6-8-2" class="st3" d="M53.6,155.9c-8.5-7.5-21.4-6.7-28.9,1.7c-7.5,8.4-6.7,21.4,1.7,28.9
		c8.5,7.5,21.4,6.7,28.9-1.7C62.8,176.4,62,163.4,53.6,155.9z"/>
	<path id="path13421-7-4-6-8-2-3" class="st4" d="M53.6,155.9c-8.5-7.5-21.4-6.7-28.9,1.7c-7.5,8.4-6.7,21.4,1.7,28.9
		c8.5,7.5,21.4,6.7,28.9-1.7C62.8,176.4,62,163.4,53.6,155.9z"/>
	<path id="path13421-8-3-52-9-4-1" d="M45.3,160.3c-5-4.5-12.7-4-17.2,1s-4,12.7,1,17.1c5,4.5,12.7,4,17.2-1S50.3,164.7,45.3,160.3z
		"/>
	<path id="path13421-8-6-1-4-1-5-3" class="st3" d="M35.2,161.1c-3.1-2.8-7.8-2.5-10.6,0.6s-2.5,7.8,0.6,10.6
		c3.1,2.8,7.8,2.5,10.6-0.6C38.6,168.5,38.3,163.8,35.2,161.1z"/>
	<path id="path13482-3-9-51-4" inkscape:connector-curvature="0" sodipodi:nodetypes="ccc" class="st3" d="M78.6,208.7
		c-21.6-0.4-50.4,8.4-55.9-14.9C13.7,241.2,92.7,248.2,78.6,208.7z"/>
	<path id="path13482-3-9-51-4-3" inkscape:connector-curvature="0" d="M23.9,193.5l-2.4,0c-2.3,12.2,1,22,7.2,28.9
		c6.1,7,15,11.1,23.7,12.5c8.7,1.4,17.3,0.1,22.9-4.4c5.7-4.5,8.1-12.2,4.5-22.4l-0.3-0.8l-0.9,0c-11-0.2-23.5,1.9-33.9,1.2
		c-5.2-0.4-9.8-1.5-13.3-3.8C27.8,202.6,25.2,199.1,23.9,193.5L23.9,193.5z M23.5,198.8c1.6,3.4,3.7,6.3,6.5,8.1
		c4.1,2.6,9.1,3.7,14.5,4.1c10.5,0.8,22.7-1.2,33.1-1.1c2.9,9,0.9,15-3.9,18.7c-4.9,3.8-12.8,5.2-21,3.9s-16.5-5.3-22.2-11.7
		C25.7,215.4,22.9,208,23.5,198.8L23.5,198.8z"/>
</g>
<path id="path13421-6-9-6-6_1_" inkscape:connector-curvature="0" d="M121.1,87.9c11.6,4.6,17.3,17.8,12.7,29.4
	c-4.6,11.6-17.8,17.3-29.4,12.6s-17.3-17.8-12.7-29.4C96.3,89,109.5,83.3,121.1,87.9z M119.5,91.9c-9.4-3.7-20,0.8-23.8,10.2
	c-3.7,9.4,0.8,20,10.2,23.8c9.4,3.7,20-0.8,23.8-10.2C133.5,106.3,128.9,95.7,119.5,91.9L119.5,91.9z"/>
</svg>
