<?xml version="1.0" encoding="utf-8"?>
<!-- Generator: Adobe Illustrator 21.0.2, SVG Export Plug-In . SVG Version: 6.00 Build 0)  -->
<svg version="1.1"
	 id="svg41740" inkscape:version="0.92.1 r15371" sodipodi:docname="Sarip-purewisdom1-v2-rev1.svg" xmlns:cc="http://creativecommons.org/ns#" xmlns:dc="http://purl.org/dc/elements/1.1/" xmlns:inkscape="http://www.inkscape.org/namespaces/inkscape" xmlns:rdf="http://www.w3.org/1999/02/22-rdf-syntax-ns#" xmlns:sodipodi="http://sodipodi.sourceforge.net/DTD/sodipodi-0.dtd" xmlns:svg="http://www.w3.org/2000/svg"
	 xmlns="http://www.w3.org/2000/svg" xmlns:xlink="http://www.w3.org/1999/xlink" x="0px" y="0px" viewBox="0 0 1233.1 855.1"
	 style="enable-background:new 0 0 1233.1 855.1;" xml:space="preserve">
<style type="text/css">
	.st0{fill:#27AE60;}
	.st1{fill:#D2A56D;}
	.st2{fill:#83502E;}
	.st3{fill:#BD7E4A;}
	.st4{fill:url(#path13325-2-2-0-6-7_1_);}
	.st5{opacity:0.9851;fill:#E2E531;enable-background:new    ;}
	.st6{fill:#FFFFFF;}
	.st7{opacity:0.9851;fill:#27AE60;enable-background:new    ;}
</style>
<sodipodi:namedview  bordercolor="#666666" borderopacity="1.0" id="base" inkscape:current-layer="layer1" inkscape:cx="1137.4687" inkscape:cy="1328.8378" inkscape:document-units="mm" inkscape:pageopacity="0.0" inkscape:pageshadow="2" inkscape:window-height="705" inkscape:window-maximized="1" inkscape:window-width="1366" inkscape:window-x="-8" inkscape:window-y="-8" inkscape:zoom="0.12374369" pagecolor="#ffffff" showgrid="false" units="px">
	</sodipodi:namedview>
<g id="layer1" transform="translate(0,496.75002)" inkscape:groupmode="layer" inkscape:label="Layer 1">
	<path id="path46340" inkscape:connector-curvature="0" class="st0" d="M49.8-351.3l51.5-3.9l0.8,22.6L28.6-327l-11.3-9.2l-2.6-71.3
		l10.5-10.9l73.5-5.6l0.8,22.6l-51.5,3.9l-2.6,2.7l1.5,41.2L49.8-351.3z"/>
	<path id="path46342" inkscape:connector-curvature="0" class="st0" d="M141.4-427.3l2.4,66.3l2.8,2.3l31.9-2.4L176-430l30.4-2.3
		l3.4,91.4l-84.5,6.5l-11.3-9.2l-3-81.4L141.4-427.3z"/>
	<path id="path46344" inkscape:connector-curvature="0" class="st0" d="M318.2-385.7l1,26.4l-10.5,10.9l-74.3,5.7l-11.3-9.2
		l-2.6-71.3l10.5-10.9l74.3-5.7l11.3,9.2l1,26.4l-30.4,2.3l-0.4-11.3l-2.8-2.3l-29.8,2.3l-2.6,2.7l1.5,41.2l2.8,2.3l29.8-2.3
		l2.6-2.7l-0.4-11.3L318.2-385.7z"/>
	<path id="path46346" inkscape:connector-curvature="0" class="st0" d="M360.2-444.1l2.4,66.3l2.8,2.3l31.9-2.4l-2.5-68.8l30.4-2.3
		l3.4,91.4l-84.5,6.5l-11.3-9.2l-3-81.4L360.2-444.1z"/>
	<path id="path46348" inkscape:connector-curvature="0" class="st0" d="M442.3-358.7l-3.4-91.4l68.8-5.3l7.2,5.7l-0.2-6.3l61.5-4.7
		l11.3,9.2l3,81.4l-30.4,2.3l-2.4-66.3l-2.8-2.3l-25.8,2l2.5,68.8l-30.4,2.3l-2.4-66.3l-2.8-2.3l-25.8,2l2.5,68.8L442.3-358.7z"/>
	<path id="path46350" inkscape:connector-curvature="0" class="st0" d="M641.9-396.7l25.8-2l2.6-2.7l-0.3-8.9l-2.8-2.3l-25.8,2
		l-0.7-18.3l25.8-2l2.6-2.7l-0.3-8.9l-2.8-2.3l-34.2,2.6l2.5,68.8l-30.1,2.3l-3.4-91.4l86.5-6.6l11.3,9.2l1.1,30.8l-6.2,5.4l6.6,4.4
		l1.1,30.8l-10.5,10.9l-48,3.7L641.9-396.7z"/>
	<path id="path46352" inkscape:connector-curvature="0" class="st0" d="M715.4-379.6l-3.4-91.4l88.3-6.8l0.8,22.6l-58.2,4.5
		l2.5,68.8L715.4-379.6z M753.1-405.2l49.7-3.8l0.8,22.6l-49.7,3.8L753.1-405.2z M751.9-439.2l42.9-3.3l0.8,21.9l-42.9,3.3
		L751.9-439.2z"/>
	<path id="path46354" inkscape:connector-curvature="0" class="st0" d="M854.6-426.3l-0.5-14.3l25.5-2l2.6-2.7l-0.5-13.6l-2.8-2.3
		l-33.9,2.6l2.5,68.8l-30.1,2.3l-3.4-91.4l86.4-6.6l11.3,9.2l1.5,40.1l-10.5,10.9l-12.7,1l24.2,29.5l-32.4,2.5L854.6-426.3z"/>
	<path id="path32181-9-6-6" inkscape:connector-curvature="0" sodipodi:nodetypes="ccccc" class="st1" d="M19.7-309L261.9-87.9
		c16.1,144.8,23,286.2,20.7,424.3L14,52L19.7-309z"/>
	<path id="path10473-2-4" inkscape:connector-curvature="0" sodipodi:nodetypes="cccsccsccc" class="st1" d="M376-330.8l2.1,255.7
		c0,0,32.3,132.4,37.9,138c0.4,0.4-36,2.3-48.5,25.9c-19.7,37.1-16.3,83.6-5.9,94.2c25.2,17.9,168,135.1,174,138
		c2.7-32.2-11.7-148.6-5.5-142.3c63.2,64.2,134.6,130.9,134.6,130.9C664,155.1,663.3,0.7,637.1-161L376-330.8z"/>
	<path id="path63559-1-4-0" inkscape:connector-curvature="0" sodipodi:nodetypes="ccccc" class="st2" d="M415.8-98.8L152.2-317.3
		L19.7-309C145.5-188.7,162.5-174.9,261.9-87.9C314.5-78.4,365.9-80.5,415.8-98.8L415.8-98.8z"/>
	<path id="path10473-0-8-9" inkscape:connector-curvature="0" sodipodi:nodetypes="ccccccccccc" class="st1" d="M580-346.9
		l-1.8,195.2l141.5,351l125.7,97.6l358.4-25.2l-5.1-104.9l-162.3-58.6l126.5-97.4L891.5-74.5l-43.1-126.8L580-346.9z"/>
	<path id="path26669-7-1" inkscape:connector-curvature="0" class="st2" d="M891.5-74.5c0,0,25.8,330.7,32.9,337.8
		c7,7,262.7-29.5,262.7-29.5l11.7-67.1l-162.3-58.6l111.1-46.6l15.5-50.8L891.5-74.5"/>
	<path id="path63559-9-5-3-7-4" inkscape:connector-curvature="0" sodipodi:nodetypes="ccccc" class="st2" d="M1183.2-152.7
		L922.1-372.8L580-346.9l244.8,219.4C985.1-122.1,1066.8-137.7,1183.2-152.7z"/>
	<path id="path26578-6-7" inkscape:connector-curvature="0" class="st3" d="M957.2,176.7l234.3-16.5l5.1,104.9l-358.4,25.2
		L817.5-134l358.4-25.2l5.1,104.9L946.8-37.8l2.8,56.5l206.2-14.5l4.9,101.4l-206.2,14.5L957.2,176.7z"/>
	<path id="path27046-2" inkscape:connector-curvature="0" d="M924.4-380l-351.3,26.7v6.4c0,0-0.3,64.2-0.3,66.8v3.2l2.5,2.1
		l185.5,154.7L780,257.8l63.3,46.1l367.7-25.8l-5.7-118.7L971,175.8l-2.1-42.7l206.1-14.5l-5.6-115.3L963.3,17.8l-2.1-42.7
		l234.3-16.4l-5.6-114.7L924.4-380z M919.8-365.7l256.6,216.4l4.6,95.1L946.8-37.7l3.4,70.4l206.2-14.5l4.2,87.6l-206.1,14.5
		l3.4,70.3l234.2-16.4l4.4,91.1l-349.1,24.5l-53.9-39.3l-19.2-377.4L586.6-283.4c0-6.2,0.2-47.4,0.3-57.1L919.8-365.7z"/>
	<path id="path27050-1" inkscape:connector-curvature="0" d="M591.5-345.6l-9.2,10.3l240,214.9l354.5-22l-0.8-13.8l-348.8,21.7
		L591.5-345.6z"/>
	<path id="path27052-7" inkscape:connector-curvature="0" d="M831.7-127.9l-13.8,0.8l22.6,417.2l13.8-0.7L831.7-127.9z"/>
	<path id="path27058-0" inkscape:connector-curvature="0" d="M1026.3-42.4l-4.2,13.2l143.5,46.1l4.2-13.2L1026.3-42.4z
		 M1061.6,113.2l-4.2,13.2l143.5,46l4.2-13.2L1061.6,113.2z"/>
	<path id="path63559-9-8-8-3" inkscape:connector-curvature="0" sodipodi:nodetypes="ccccc" class="st2" d="M767.5-123.5
		L505.2-340.7L376-330.8l237.5,218.2C696.2-111.5,715.8-111.6,767.5-123.5z"/>
	<path id="path8766-8-82-7-0-3" inkscape:connector-curvature="0" d="M924.6-308c-18-0.6-36.3,7-51.7,22.1
		c-20.4,20.2-36.3,53.3-43.1,99.3l0.1-0.5c-22.1,104.5-66.6,249.3-124.9,361l-1.2,2.3l0.3,2.5c7.9,63.5,66.4,107.9,139.3,126
		l3.7,0.9l3.1-2.3c64.7-48.2,98.5-133.6,119-221.5C989.9-6,997-97.1,1006.2-157l0.1-0.5l0-0.5c2.4-82.1-25.7-132.9-64-146.6
		C936.6-306.7,930.6-307.8,924.6-308L924.6-308z M923.9-291.8c4.4,0.2,8.7,1.1,13,2.6c28.2,10.1,55.4,52.5,53.2,130.5
		c-9.3,61.1-16.5,150.9-36.6,236.9c-19.8,84.8-52.5,164.8-110,209.6c-65.9-17.4-115-56.6-122.7-109
		c58.7-113.4,102.8-257.5,125-362.5l0-0.2l0-0.2c6.5-43.5,21.4-73.3,38.5-90.1C897.2-286.9,910.7-292.4,923.9-291.8L923.9-291.8z"/>
	<path id="path8766-8-82-3-0" inkscape:connector-curvature="0" sodipodi:nodetypes="cccccc" class="st0" d="M939.6-296.9
		c33.3,11.9,60.9,58.5,58.6,138.7c-18.5,121.1-28.7,362.6-152.7,455.1c-70.9-17.6-125.8-60.1-133.1-119.1
		c58.8-112.8,103.4-258,125.6-363.1C851.2-274.9,899.5-311.3,939.6-296.9z"/>
	
		<linearGradient id="path13325-2-2-0-6-7_1_" gradientUnits="userSpaceOnUse" x1="414.8345" y1="-474.1284" x2="413.2088" y2="-483.7276" gradientTransform="matrix(-23.6913 -8.0496 8.0496 -23.6913 14578.3018 -8197.9141)">
		<stop  offset="0" style="stop-color:#C3F13B"/>
		<stop  offset="1" style="stop-color:#C3F13B;stop-opacity:0"/>
	</linearGradient>
	<path id="path13325-2-2-0-6-7" inkscape:connector-curvature="0" sodipodi:nodetypes="ccccccccccccscccccccccc" class="st4" d="
		M939.4-296.8c25.3,9,47.4,38.3,55.5,87c-7.1-10.9-14.9-21.1-22.4-25.4c-19.1-10.9-26.1-16.1-26.1-16.1s24.5,32,25.7,38.8
		c1.2,6.8,1.3,11,1.3,11s-9.2-23.3-20.4-31.1c-11.2-7.8-13.9-10.7-13.9-10.7c23.8,67.8,43.1,105.5,12,184.4
		c25.1-111.5-17.4-161.7-30.7-180.3c-0.1,54.6,5.2,105.8-7.9,159.2c-5.5-50,10.1-111.3-11.8-159.3c-2.3-3.4-25.7,108-35,135.2
		C856.3-76.8,849-67,849-67s14.5-82.9,18.2-107.9c3.7-25.1,17.2-72.7,17.2-72.7s-10.4,10.1-22.6,18.7c-5.1,3.6-12.9,13-20.3,22.7
		c2.5-10.7,5.5-20.4,9-29.3c12.1-11.4,25-24.7,25-24.7s-4-2.5-12.7,0.1C884-294.1,913.4-306.1,939.4-296.8L939.4-296.8z"/>
	<path id="path13396-4-7-6-0-8" inkscape:connector-curvature="0" class="st5" d="M904.4-269.3c0,5.5,6,9.9,13.4,9.9
		c7.4,0,13.4-4.4,13.4-9.9c0-5.5-6-9.9-13.4-9.9c0,0,0,0,0,0C910.4-279.2,904.4-274.8,904.4-269.3
		C904.4-269.3,904.4-269.3,904.4-269.3L904.4-269.3z"/>
	<path id="path13421-0-1-6-4-8" inkscape:connector-curvature="0" class="st6" d="M894.5-8.4c-11.8,28,1.3,60.2,29.2,72
		c28,11.8,60.2-1.3,72-29.2c11.8-28-1.3-60.2-29.2-72C938.5-49.5,906.3-36.4,894.5-8.4z"/>
	<path id="path13421-8-0-3-4-4-3" inkscape:connector-curvature="0" d="M906.4-2.1c-7,16.6,0.8,35.7,17.4,42.8v0
		c16.6,7,35.7-0.8,42.8-17.4c7-16.6-0.8-35.7-17.4-42.8C932.5-26.5,913.4-18.7,906.4-2.1C906.4-2.1,906.4-2.1,906.4-2.1L906.4-2.1z"
		/>
	<path id="path13421-8-6-5-1-3-0-6" inkscape:connector-curvature="0" class="st6" d="M897.8,1.9c-4.3,10.3,0.5,22.1,10.7,26.4
		c0,0,0,0,0,0c10.3,4.3,22.1-0.5,26.4-10.7c0,0,0,0,0,0c4.3-10.3-0.5-22.1-10.7-26.4C914-13.2,902.2-8.4,897.8,1.9z"/>
	<path id="path13421-7-1-2-6-9-7" inkscape:connector-curvature="0" class="st6" d="M781.3-56.7c-20.6,22.3-19.3,57,3,77.7
		c0,0,0,0,0,0c22.3,20.6,57,19.3,77.7-3c0,0,0,0,0,0c20.6-22.3,19.3-57-3-77.7C836.7-80.3,802-79,781.3-56.7z"/>
	<path id="path13421-7-1-2-6-9-7-5" inkscape:connector-curvature="0" d="M819.3-80.1c-15.6,0.6-30.9,7.1-42.3,19.4
		c-22.8,24.6-21.3,63.1,3.3,85.9c24.6,22.8,63.1,21.3,85.9-3.3C889-2.6,887.5-41.2,863-63.9C850.7-75.3,834.9-80.6,819.3-80.1z
		 M819.8-68.5c12.6-0.5,25.3,3.8,35.3,13.1c20,18.5,21.1,49.5,2.7,69.5c-18.5,20-49.5,21.2-69.5,2.7c-20-18.5-21.1-49.5-2.7-69.5
		C794.8-62.8,807.2-68.1,819.8-68.5z"/>
	<path id="path13421-8-3-6-3-8-3-3" inkscape:connector-curvature="0" d="M790.3-46.7c-12.2,13.2-11.5,33.9,1.8,46.1c0,0,0,0,0,0
		c13.2,12.2,33.9,11.5,46.1-1.8c0,0,0,0,0,0c12.2-13.2,11.5-33.9-1.8-46.1C823.2-60.7,802.6-59.9,790.3-46.7
		C790.3-46.7,790.3-46.7,790.3-46.7z"/>
	<path id="path13421-8-6-1-3-8-7-1-8" inkscape:connector-curvature="0" class="st6" d="M781-45.9c-7.6,8.2-7.1,20.9,1.1,28.5
		c0,0,0,0,0,0c8.2,7.6,20.9,7.1,28.5-1.1c0,0,0,0,0,0c7.6-8.2,7.1-20.9-1.1-28.5c0,0,0,0,0,0C801.3-54.5,788.5-54,781-45.9
		C781-45.9,781-45.9,781-45.9z"/>
	<path id="path13482-2-4-5-2-5" inkscape:connector-curvature="0" sodipodi:nodetypes="ccc" class="st6" d="M927.2,85.7
		c-57.9-2.2-135.7,19.8-149.1-43.2C751.1,169.3,955.2,191.7,927.2,85.7z"/>
	<path id="path26576-0-2" inkscape:connector-curvature="0" class="st3" d="M535.5,321L395,99.2l11.1,228.5l-123.6,8.7L261.9-87.9
		l153.9-10.8L523.6,77.9l89.9-190.6l153.9-10.8l20.7,424.3l-123.6,8.7L653.4,81.1L535.5,321z"/>
	
		<path id="path27017-9" inkscape:connector-curvature="0" sodipodi:nodetypes="cccccccccccccccccccccccccccccccccccccccccccccccccccccccccccccccc" d="
		M507.5-347.9l-138.6,10.7l8.8,189.4L154.4-324.4l-141.5,8.9L7.1,54.6l1.9,2l268.5,284.5l2.3,2.4l3.2-0.2l123.6-8.6l6.7-0.5
		L408.2,228c48.5,39.3,92.2,74.2,128.3,102.6l45.9-89.5c29.3,29.7,56.9,57,75.6,75.8l137.4-9.6l-21.1-434.1L507.5-347.9z
		 M502.9-333.6l246.9,204.4l-133.7,9.4L392.4-325.2L502.9-333.6z M383.7-314.4L605.2-111L522.9,63.3L419.6-106
		c-8.3-8.6-18.7-19.9-27.6-29.7L383.7-314.4z M150-310.3c89.1,72.2,177,145.6,251.3,205.6L264.5-95L36.4-303.1L150-310.3z
		 M26.4-293.6L255.2-84.8l19.6,402.9C252,294,24.6,53.1,21,49.2L26.4-293.6z M760.9-116.1l20,410.5l-109.8,7.7L659.1,54L534.7,306.9
		L386.9,73.4l6.9,142.8l-0.1,0.2l0.1,0.1l5.1,104.8c-11.4,0.8-98.5,7-109.7,7.7l-20-410.5l142.9-10l112.3,184l93.7-198.5
		L760.9-116.1z M647.8,108.1l9,184.6l-68-64.6L647.8,108.1z M403.2,125.1l104.4,164.7l-100.3-80.2L403.2,125.1z"/>
	<path id="path46340-8" inkscape:connector-curvature="0" d="M101.7-427.4l-77.9,6l-12.3,12.7l2.7,74.1l13.3,10.9l77.7-5.9
		l-1.1-28.8l-53.5,4.1l-0.8-0.6l-1.4-38.5l0.9-0.9l53.3-4.1L101.7-427.4z M95.7-420.7l0.6,16.4l-49.7,3.8l-4.4,4.5l1.6,43.9l4.9,4
		l1.2-0.1l48.3-3.7l0.6,16.4l-69.2,5.3l-9.2-7.5l-2.5-68.6l8.8-9.1L95.7-420.7z"/>
	<path id="path46342-4" inkscape:connector-curvature="0" d="M209.4-435.7l-36.6,2.8l2.5,68.8l-27.7,2.1l-0.8-0.6l-2.5-68.1
		l-3.2,0.3l-33.4,2.6l3.2,85.8l13.3,10.9L213-338L209.4-435.7z M203.4-429l3.1,85.2l-80.3,6.1l-9.2-7.5l-2.8-77l24.2-1.9l2.4,64.5
		l4.9,4l36.1-2.8l-2.5-68.8L203.4-429z"/>
	<path id="path46344-3" inkscape:connector-curvature="0" d="M306.3-443.1l-76.7,5.9l-12.3,12.7l2.7,74.1l13.3,10.9l76.7-5.9
		l12.3-12.7l-1.1-30.9l-3.2,0.3l-33.4,2.6l0.5,13l-0.9,0.9l-27.4,2.1l-0.8-0.6l-1.4-38.4l0.9-0.9l27.4-2.1l0.8,0.6l0.5,13.1
		l36.6-2.8l-1.1-30.8L306.3-443.1z M304.3-436.7l9.2,7.5l0.8,22l-24.2,1.8l-0.3-9.5l-4.9-4l-32.3,2.5l-4.4,4.5l1.6,43.9l4.9,4
		l32.3-2.5l4.4-4.5l-0.4-9.6l24.2-1.8l0.8,21.8l-8.8,9.1l-71.8,5.5l-9.2-7.5l-2.5-68.6l8.8-9.1L304.3-436.7z"/>
	<path id="path46346-9" inkscape:connector-curvature="0" d="M428.2-452.4l-36.6,2.8l2.5,68.8l-27.7,2.1l-0.8-0.6l-2.5-68.1
		l-3.2,0.2l-33.4,2.6l3.2,85.8l13.3,10.9l88.7-6.8L428.2-452.4z M422.2-445.7l3.1,85.2l-80.3,6.1l-9.2-7.5l-2.8-77l24.2-1.9
		l2.4,64.5l4.9,4l36.1-2.8l-2.5-68.8L422.2-445.7z"/>
	<path id="path46348-5" inkscape:connector-curvature="0" d="M577.2-463.8l-65.7,5l0.1,2.5l-2.8-2.3l-73,5.6l3.6,97.7l3.2-0.2
		l33.4-2.6l-2.5-68.8l21.5-1.6l0.8,0.6l2.5,68.1l36.6-2.8l-2.5-68.8l21.5-1.6l0.8,0.6l2.5,68.1l36.6-2.8l-3.2-85.8L577.2-463.8z
		 M575.2-457.4l9.2,7.5l2.8,77l-24.2,1.8l-2.4-64.5l-4.9-4l-30,2.3l2.5,68.8l-24.2,1.9l-2.4-64.5l-4.9-4l-30,2.3l2.5,68.8l-24.2,1.8
		l-3.1-85.2l64.6-4.9l11.5,9.2L518-453L575.2-457.4z"/>
	<path id="path46350-5" inkscape:connector-curvature="0" d="M688.3-472.3l-90.8,7l3.6,97.7l36.3-2.8l-2.5-68.8l30-2.3l0.8,0.6
		l0.2,6.2l-0.9,0.9l-27.6,2.1l0.9,24.6l27.7-2.1l0.8,0.6l0.2,6.2l-0.9,0.9l-27.6,2.1l0.1,3l1,25.9l52.4-4l12.3-12.7l-1.2-33.7
		l-4.5-3l4.3-3.7l-1.2-33.7L688.3-472.3z M686.3-465.9l9.2,7.5l1,27.9l-8.2,7.1l8.7,5.8l1,27.8l-8.8,9.1l-43.6,3.3l-0.6-16.4
		l23.9-1.8l4.4-4.5l-0.4-11.7l-4.9-4l-23.8,1.8l-0.4-12.1l23.9-1.8l4.4-4.5l-0.4-11.7l-4.9-4l-38.4,2.9l2.5,68.8l-23.9,1.8
		l-3.1-85.2L686.3-465.9z"/>
	<path id="path46352-2" inkscape:connector-curvature="0" d="M803.4-481.2l-94.5,7.2l3.6,97.7l3.2-0.2l33.1-2.5l-2.5-68.8l58.2-4.5
		L803.4-481.2z M797.4-474.4l0.6,16.4l-58.2,4.5l2.5,68.8l-23.9,1.8l-3.1-85.2L797.4-474.4z M797.8-445.9l-49.2,3.8l0.1,3l0.9,25.1
		l49.1-3.8L797.8-445.9z M791.8-439.1l0.6,15.6l-36.7,2.8l-0.6-15.6L791.8-439.1z M805.9-412.3l-56,4.3l0.1,3l1,25.8l56-4.3
		L805.9-412.3z M799.9-405.6l0.6,16.4l-43.5,3.3l-0.6-16.4L799.9-405.6z"/>
	<path id="path46354-5" inkscape:connector-curvature="0" d="M901.4-488.7l-90.6,6.9l3.6,97.7l36.3-2.8l-2.5-68.8l29.7-2.3l0.8,0.6
		l0.4,10.8l-0.9,0.9l-27.3,2.1l0.7,18.3l0.6,0.8l28.1,35.2l40.1-3.1l-24.2-29.5l7.9-0.6l12.3-12.7l-1.6-42.8L901.4-488.7z
		 M899.4-482.3l9.2,7.5l1.4,37.3l-8.8,9.1l-17.5,1.3l24.2,29.5l-24.8,1.9l-25.4-31.8l-0.4-10.3l23.7-1.8l4.4-4.5l-0.6-16.3l-4.9-4
		l-38.2,2.9l2.5,68.8l-23.9,1.8l-3.1-85.2L899.4-482.3z"/>
	<path id="path13396-4-7-6-0-8-4" inkscape:connector-curvature="0" class="st7" d="M917.8-280.5c-4,0-7.6,1.2-10.2,3.1
		c-2.7,2-4.4,4.8-4.5,8c0,3.2,1.8,6,4.4,8c2.7,2,6.3,3.2,10.2,3.2c4,0,7.6-1.2,10.2-3.1s4.4-4.8,4.5-8c0-3.2-1.8-6-4.4-8
		C925.3-279.3,921.7-280.5,917.8-280.5z M917.8-277.9c3.4,0,6.5,1,8.7,2.6c2.2,1.6,3.4,3.7,3.4,5.9c0,2.3-1.2,4.3-3.4,5.9
		s-5.3,2.6-8.7,2.6c-3.4,0-6.5-1-8.7-2.6c-2.2-1.6-3.4-3.7-3.4-5.9c0-2.3,1.2-4.3,3.4-5.9S914.3-277.9,917.8-277.9z"/>
	<path id="path13421-0-1-6-4-8-9" inkscape:connector-curvature="0" d="M945.1-47.8c-23.7,0-46.2,14-56,37.1
		c-13,30.8,1.5,66.6,32.3,79.6c30.8,13,66.6-1.5,79.6-32.3c13-30.8-1.5-66.6-32.3-79.6C961-46.3,953-47.8,945.1-47.8z M945.1-36.2
		c6.4,0,12.9,1.3,19.1,3.9C989.3-21.7,1001,7,990.4,32.1C979.8,57.2,951,68.8,926,58.2c-25.1-10.6-36.7-39.3-26.1-64.4
		C907.8-25,925.9-36.3,945.1-36.2z"/>
	<path id="path13482-2-4-5-2-5-8" inkscape:connector-curvature="0" d="M774.9,41.8c-6.9,32.5,1,58.9,16.5,77.9s38.3,30.7,61,34.9
		c22.8,4.2,45.7,1.1,61.4-10.5c15.8-11.6,23.8-31.9,16.5-59.3l-0.6-2.4l-2.5-0.1c-29.4-1.1-63.3,3.8-91,1.2
		c-13.9-1.3-26.1-4.5-35.5-10.8c-9.4-6.4-16.2-15.9-19.4-30.9L774.9,41.8z M779.8,57.4c4.2,8.9,10,15.9,17.3,20.8
		c10.8,7.3,24.1,10.6,38.6,11.9c28.1,2.6,60.8-1.8,88.7-1.1c5.6,24-1.2,40-14.4,49.8c-13.8,10.1-34.9,13.3-56.3,9.3
		c-21.4-4-42.8-15-57.1-32.6C784.6,100.9,778,81.4,779.8,57.4z"/>
</g>
</svg>
