<?xml version="1.0" encoding="utf-8"?>
<!-- Generator: Adobe Illustrator 21.1.0, SVG Export Plug-In . SVG Version: 6.00 Build 0)  -->
<svg version="1.1"
	 id="svg4593" inkscape:version="0.92.1 r15371" sodipodi:docname="Sarip-purewisdom1-ThickCucumber.svg" xmlns:cc="http://creativecommons.org/ns#" xmlns:dc="http://purl.org/dc/elements/1.1/" xmlns:inkscape="http://www.inkscape.org/namespaces/inkscape" xmlns:rdf="http://www.w3.org/1999/02/22-rdf-syntax-ns#" xmlns:sodipodi="http://sodipodi.sourceforge.net/DTD/sodipodi-0.dtd" xmlns:svg="http://www.w3.org/2000/svg"
	 xmlns="http://www.w3.org/2000/svg" xmlns:xlink="http://www.w3.org/1999/xlink" x="0px" y="0px" viewBox="0 0 176.2 261.6"
	 style="enable-background:new 0 0 176.2 261.6;" xml:space="preserve">
<style type="text/css">
	.st0{fill:#27AE60;}
	.st1{fill:url(#path13325-0-6-1-6_1_);}
	.st2{fill:#E2E531;}
	.st3{fill:#FFFFFF;}
</style>
<sodipodi:namedview  bordercolor="#666666" borderopacity="1.0" id="base" inkscape:current-layer="layer1" inkscape:cx="412.73571" inkscape:cy="240.02813" inkscape:document-units="mm" inkscape:pagecheckerboard="true" inkscape:pageopacity="0.0" inkscape:pageshadow="2" inkscape:window-height="705" inkscape:window-maximized="1" inkscape:window-width="1366" inkscape:window-x="-8" inkscape:window-y="-8" inkscape:zoom="0.35" pagecolor="#ffffff" showgrid="false">
	</sodipodi:namedview>
<g id="layer1" transform="translate(68.770096,-74.282654)" inkscape:groupmode="layer" inkscape:label="Layer 1">
	<g id="g13696" inkscape:export-xdpi="300" inkscape:export-ydpi="300">
		<g id="g13673">
			<g id="g13650" transform="matrix(1.0402492,0,0,1,-0.7746784,0)">
				<path id="path13323-0-3-7-6-8" inkscape:connector-curvature="0" inkscape:export-xdpi="300" inkscape:export-ydpi="300" d="
					M56.2,74.4c-18.9,1.7-36.9,16.7-42.7,43.3l0.1-0.5c-22.3,63.2-44,100.9-74.5,164.2l0,0.1l0,0.1c-5.9,14.2-5.7,26.1-0.8,35.1
					c4.9,9,14.2,14.6,24.8,17.2c21,5.2,47.8-0.2,63.9-15l0,0c0.1-0.1,0.1-0.1,0.2-0.2c0,0,0.1,0,0.1-0.1l5.4-5l-0.1,0
					C87.4,266,93.9,187.1,104,131.3l0.1-0.3l0-0.3C104.4,97,85.9,77,64.3,74.5C61.6,74.2,58.9,74.2,56.2,74.4L56.2,74.4z M63.2,82.8
					c16.2,1.8,32,16.7,31.7,47.6c-10.5,58.5-17.3,138.4-73.8,182.3l-0.5,0.4C7.4,325.2-17,330.3-34.5,325.9
					c-8.8-2.2-15.5-6.5-19.1-12.9c-3.5-6.5-4.1-15.6,1.2-28.3c0,0,0,0,0,0c30.3-63,52.3-101.2,74.7-164.9l0.1-0.2l0-0.2
					C28.4,92,47,81,63.2,82.8L63.2,82.8z"/>
				
					<path id="path13323-0-3-7-2" inkscape:connector-curvature="0" inkscape:export-xdpi="300" inkscape:export-ydpi="300" sodipodi:nodetypes="cccccc" class="st0" d="
					M24.1,315.9C82.6,270.3,89,188.8,99.5,130.6C100.3,66,30.6,60.8,18,118.5C-4.4,182-26.2,220-56.6,283.2
					C-79.1,337.2-5.2,343,24.1,315.9L24.1,315.9z"/>
				
					<linearGradient id="path13325-0-6-1-6_1_" gradientUnits="userSpaceOnUse" x1="-159.7915" y1="451.9219" x2="-161.4171" y2="442.3227" gradientTransform="matrix(-12.6756 -2.925 3.8564 -8.8847 -3703.0796 3624.4626)">
					<stop  offset="0" style="stop-color:#C3F13B"/>
					<stop  offset="1" style="stop-color:#C3F13B;stop-opacity:0"/>
				</linearGradient>
				
					<path id="path13325-0-6-1-6" inkscape:connector-curvature="0" inkscape:export-xdpi="300" inkscape:export-ydpi="300" sodipodi:nodetypes="ccccccccccccscccccccccc" class="st1" d="
					M68.1,79.5c13,3.2,24.6,13.9,29.3,32c-3.7-4-7.8-7.7-11.7-9.3c-9.9-3.9-13.5-5.8-13.5-5.8s12.8,11.7,13.5,14.2
					c0.7,2.5,0.8,4.1,0.8,4.1s-4.9-8.6-10.7-11.4c-5.8-2.8-7.2-3.9-7.2-3.9c12.9,25.1,23.2,38.9,8.1,68.6
					c11.6-41.7-10.6-60.1-17.6-66.9c0.5,20.3,3.8,39.3-2.3,59.3c-3.3-18.6,4-41.5-7.7-59.2c-1.2-1.3-12,40.4-16.4,50.6
					c-4.4,10.2-8,13.9-8,13.9s6.5-31,8.2-40.3c1.6-9.4,8-27.2,8-27.2s-5.2,3.8-11.3,7.1c-2.6,1.4-6.5,4.9-10.1,8.6
					c1.2-4,2.6-7.7,4.3-11c6.1-4.3,12.5-9.4,12.5-9.4s-2.1-0.9-6.5,0.1C39.9,80.9,54.7,76.2,68.1,79.5L68.1,79.5z"/>
				<path id="path13396-9-4-0-0" inkscape:export-xdpi="300" inkscape:export-ydpi="300" class="st2" d="M57.2,86.2
					c-3.8,0.1-6.8,1.7-6.7,3.8c0.1,2,3.2,3.6,6.9,3.6c3.8-0.1,6.8-1.7,6.7-3.8S61,86.1,57.2,86.2z"/>
				
					<path id="path13396-9-4-0-0-3" inkscape:connector-curvature="0" inkscape:export-xdpi="300" inkscape:export-ydpi="300" class="st0" d="
					M57.2,85.7c2,0,3.8,0.4,5.2,1.1c1.4,0.7,2.3,1.8,2.4,3c0,1.3-0.9,2.4-2.2,3.1c-1.3,0.7-3.1,1.2-5.1,1.2c-2,0-3.8-0.4-5.2-1.1
					c-1.4-0.7-2.3-1.8-2.4-3c0-1.3,0.9-2.3,2.2-3.1C53.4,86.1,55.2,85.7,57.2,85.7L57.2,85.7z M57.3,86.7c-1.8,0-3.4,0.4-4.5,1.1
					c-1.1,0.6-1.7,1.4-1.7,2.2c0,0.8,0.6,1.5,1.8,2.1c1.1,0.6,2.8,1,4.6,0.9c1.8,0,3.4-0.4,4.5-1.1c1.1-0.6,1.7-1.4,1.7-2.2
					c0-0.8-0.6-1.5-1.8-2.1C60.7,87.1,59,86.7,57.3,86.7L57.3,86.7z"/>
			</g>
			<g id="g13643">
				<g id="g7269" transform="translate(2.3167236,10.294437)" inkscape:export-xdpi="300" inkscape:export-ydpi="300">
					
						<ellipse id="path13421-6-9-6-8" transform="matrix(0.3699 -0.9291 0.9291 0.3699 -131.1769 173.0886)" class="st3" cx="62" cy="183.3" rx="20.5" ry="20.5"/>
					
						<ellipse id="path13421-7-4-6-8-8" transform="matrix(0.6641 -0.7477 0.7477 0.6641 -123.4302 69.652)" class="st3" cx="15.8" cy="172.2" rx="20.5" ry="20.5"/>
				</g>
				<g id="g7265" transform="translate(-1.5153104,14.735013)" inkscape:export-xdpi="300" inkscape:export-ydpi="300">
					<path id="path13421-6-9-6-8-4" inkscape:connector-curvature="0" d="M74.2,157.8c11.6,4.6,17.3,17.8,12.7,29.4
						c-4.6,11.6-17.8,17.3-29.4,12.7S40.2,182,44.8,170.4S62.6,153.2,74.2,157.8L74.2,157.8z M72.6,161.8c-9.4-3.7-20,0.8-23.8,10.2
						c-3.8,9.4,0.8,20,10.2,23.8c9.4,3.7,20-0.8,23.8-10.2C86.6,176.2,82,165.6,72.6,161.8L72.6,161.8z"/>
					<path id="path13421-7-4-6-8-8-1" inkscape:connector-curvature="0" d="M34.7,150.8c9.3,8.3,10.2,22.6,1.9,31.9
						s-22.6,10.2-32,1.9c-9.3-8.3-10.2-22.6-1.9-31.9S25.3,142.5,34.7,150.8z M31.8,154.1c-7.6-6.7-19.1-6-25.9,1.5
						c-6.7,7.6-6,19.1,1.5,25.8c7.6,6.7,19.1,6.1,25.9-1.5C40.1,172.3,39.4,160.8,31.8,154.1z"/>
				</g>
				
					<ellipse id="path13421-8-2-6-0-4" inkscape:export-xdpi="300" inkscape:export-ydpi="300" transform="matrix(0.3699 -0.9291 0.9291 0.3699 -140.5844 178.1997)" cx="61.1" cy="192.7" rx="12.2" ry="12.2">
				</ellipse>
				
					<ellipse id="path13421-8-6-7-5-6-5" inkscape:export-xdpi="300" inkscape:export-ydpi="300" transform="matrix(0.3699 -0.9291 0.9291 0.3699 -145.1272 171.1612)" class="st3" cx="53.6" cy="192.6" rx="7.5" ry="7.5">
				</ellipse>
				
					<ellipse id="path13421-8-3-52-9-4-5" inkscape:export-xdpi="300" inkscape:export-ydpi="300" transform="matrix(0.6641 -0.7477 0.7477 0.6641 -129.8919 72.1344)" cx="15.3" cy="180.6" rx="12.2" ry="12.2">
				</ellipse>
				
					<ellipse id="path13421-8-6-1-4-1-5-4" inkscape:export-xdpi="300" inkscape:export-ydpi="300" transform="matrix(0.6641 -0.7477 0.7477 0.6641 -130.2111 66.0264)" class="st3" cx="8.4" cy="177.9" rx="7.5" ry="7.5">
				</ellipse>
				
					<path id="path13482-3-9-51-2" inkscape:connector-curvature="0" inkscape:export-xdpi="300" inkscape:export-ydpi="300" sodipodi:nodetypes="ccc" class="st3" d="
					M58.2,220.8c-21.6-0.4-50.4,8.4-55.9-14.9C-6.7,253.3,72.3,260.2,58.2,220.8z"/>
				<path id="path13482-3-9-51-2-9" inkscape:connector-curvature="0" inkscape:export-xdpi="300" inkscape:export-ydpi="300" d="
					M3.6,205.6l-2.4,0.1c-2.3,12.2,1,22,7.2,28.9c6.1,7,15,11.1,23.7,12.6c8.7,1.4,17.3,0.1,22.9-4.4c5.7-4.5,8.1-12.2,4.5-22.4
					l-0.3-0.8l-0.9,0c-11-0.2-23.5,1.9-33.9,1.2c-5.2-0.4-9.8-1.5-13.3-3.8C7.5,214.6,4.9,211.2,3.6,205.6L3.6,205.6z M3.2,210.9
					c1.6,3.4,3.7,6.3,6.5,8.1c4.1,2.6,9.1,3.8,14.5,4.1c10.5,0.8,22.7-1.2,33.1-1.1c2.9,9,0.9,15-3.9,18.7c-4.9,3.8-12.8,5.2-21,3.9
					s-16.5-5.3-22.2-11.7C5.4,227.4,2.6,220,3.2,210.9L3.2,210.9z"/>
			</g>
		</g>
	</g>
</g>
</svg>
