<?xml version="1.0" encoding="utf-8"?>
<!-- Generator: Adobe Illustrator 21.1.0, SVG Export Plug-In . SVG Version: 6.00 Build 0)  -->
<svg version="1.1"
	 id="svg4663" inkscape:version="0.92.1 r15371" sodipodi:docname="Sarip-purewisdom1-v1.svg" xmlns:cc="http://creativecommons.org/ns#" xmlns:dc="http://purl.org/dc/elements/1.1/" xmlns:inkscape="http://www.inkscape.org/namespaces/inkscape" xmlns:rdf="http://www.w3.org/1999/02/22-rdf-syntax-ns#" xmlns:sodipodi="http://sodipodi.sourceforge.net/DTD/sodipodi-0.dtd" xmlns:svg="http://www.w3.org/2000/svg"
	 xmlns="http://www.w3.org/2000/svg" xmlns:xlink="http://www.w3.org/1999/xlink" x="0px" y="0px" viewBox="0 0 1422.2 978.7"
	 style="enable-background:new 0 0 1422.2 978.7;" xml:space="preserve">
<style type="text/css">
	.st0{fill:#D2A56D;}
	.st1{fill:#83502E;}
	.st2{fill:#BD7E4A;}
	.st3{fill:#27AE60;}
	.st4{fill:url(#path13325-2-2-0-6-7_1_);}
	.st5{fill:#FFFFFF;}
	.st6{opacity:0.9851;fill:#27AE60;enable-background:new    ;}
	.st7{opacity:0.9851;fill:#E1E531;enable-background:new    ;}
	.st8{fill:#ECECEC;}
	.st9{fill:none;}
</style>
<sodipodi:namedview  bordercolor="#666666" borderopacity="1.0" id="base" inkscape:current-layer="layer1" inkscape:cx="2133.1848" inkscape:cy="1540.9852" inkscape:document-units="mm" inkscape:guide-bbox="true" inkscape:pagecheckerboard="true" inkscape:pageopacity="0.0" inkscape:pageshadow="2" inkscape:window-height="705" inkscape:window-maximized="1" inkscape:window-width="1366" inkscape:window-x="-8" inkscape:window-y="-8" inkscape:zoom="0.12374369" pagecolor="#ffffff" showgrid="false" showguides="true" units="px">
	</sodipodi:namedview>
<g id="layer1" transform="translate(0,496.75002)" inkscape:groupmode="layer" inkscape:label="Layer 1">
	<g id="g6049">
		
			<path id="path32181-9-6-6" inkscape:connector-curvature="0" inkscape:export-xdpi="300" inkscape:export-ydpi="300" sodipodi:nodetypes="ccccc" class="st0" d="
			M16-288.2L301.9-27.3c19.1,170.9,27.1,337.8,24.4,500.9L9.3,137.8L16-288.2z"/>
		
			<path id="path10473-2-4" inkscape:connector-curvature="0" inkscape:export-xdpi="300" inkscape:export-ydpi="300" sodipodi:nodetypes="cccsccsccc" class="st0" d="
			M436.6-314l2.5,301.8c0,0,38.1,156.3,44.7,162.9c0.5,0.5-42.5,2.8-57.3,30.6c-23.2,43.8-19.3,98.7-7,111.1
			c29.7,21.1,198.3,159.5,205.3,162.9c3.2-38-13.8-175.5-6.5-168c74.6,75.7,158.8,154.5,158.8,154.5
			c-0.7-182.2-1.5-364.5-32.4-555.4L436.6-314z"/>
		
			<path id="path63559-1-4-0" inkscape:connector-curvature="0" inkscape:export-xdpi="300" inkscape:export-ydpi="300" sodipodi:nodetypes="ccccc" class="st1" d="
			M483.6-40.1l-311.2-258L16-288.2C164.5-146.2,184.5-130,301.9-27.3C364-16,424.7-18.5,483.6-40.1z"/>
		
			<path id="path10473-0-8-9" inkscape:connector-curvature="0" inkscape:export-xdpi="300" inkscape:export-ydpi="300" sodipodi:nodetypes="ccccccccccc" class="st0" d="
			M677.4-333l-2.1,230.4l167,414.3l148.4,115.2l423.1-29.7l-6-123.8l-191.6-69.1l149.3-115L1045-11.4l-50.8-149.7L677.4-333z"/>
		
			<path id="path26669-7-1" inkscape:connector-curvature="0" inkscape:export-xdpi="300" inkscape:export-ydpi="300" class="st1" d="
			M1045.1-11.4c0,0,30.5,390.4,38.8,398.7c8.3,8.3,310-34.8,310-34.8l13.8-79.2l-191.6-69.1l131.1-55l18.2-60L1045.1-11.4"/>
		
			<path id="path63559-9-5-3-7-4" inkscape:connector-curvature="0" inkscape:export-xdpi="300" inkscape:export-ydpi="300" sodipodi:nodetypes="ccccc" class="st1" d="
			M1389.4-103.8l-308.3-259.8L677.4-333l289,259C1155.6-67.6,1252-86,1389.4-103.8L1389.4-103.8z"/>
		
			<path id="path26578-6-7" inkscape:connector-curvature="0" inkscape:export-xdpi="300" inkscape:export-ydpi="300" class="st2" d="
			M1131.2,292.7l276.5-19.4l6,123.8l-423.1,29.7L966.3-74l423.1-29.7l6,123.8l-276.5,19.4l3.2,66.7l243.4-17.1l5.8,119.7L1128,226
			L1131.2,292.7z"/>
		<path id="path27046-2" inkscape:connector-curvature="0" inkscape:export-xdpi="300" inkscape:export-ydpi="300" d="M1083.9-372
			l-414.7,31.5v7.5c0,0-0.4,75.7-0.4,78.8v3.8l2.9,2.5L890.7-65.3l22.8,446.1l74.8,54.4l434-30.5l-6.8-140.2L1138.9,284l-2.5-50.4
			l243.3-17.1l-6.6-136l-243.4,17.1l-2.5-50.4l276.5-19.4l-6.6-135.4L1083.9-372z M1078.4-355.2l302.9,255.4l5.5,112.3L1110.3,32
			l4,83.1l243.4-17.1l5,103.4l-243.3,17.1l4,83l276.5-19.4l5.2,107.5L993,418.5l-63.7-46.3L906.7-73.3L685.2-258
			c0-7.4,0.3-55.9,0.4-67.4L1078.4-355.2z"/>
		<path id="path27050-1" inkscape:connector-curvature="0" inkscape:export-xdpi="300" inkscape:export-ydpi="300" d="M691-331.5
			l-10.9,12.2L963.4-65.6l418.4-26l-1-16.3L969.2-82.4L691-331.5z"/>
		<path id="path27052-7" inkscape:connector-curvature="0" inkscape:export-xdpi="300" inkscape:export-ydpi="300" d="M974.5-74.5
			l-16.3,0.9l26.7,492.5l16.3-0.8L974.5-74.5z"/>
		<path id="path27058-0" inkscape:connector-curvature="0" inkscape:export-xdpi="300" inkscape:export-ydpi="300" d="M1204.1,26.4
			l-5,15.5l169.4,54.4l5-15.5L1204.1,26.4z M1245.8,210.1l-5,15.5l169.4,54.3l5-15.5L1245.8,210.1z"/>
		
			<path id="path63559-9-8-8-3" inkscape:connector-curvature="0" inkscape:export-xdpi="300" inkscape:export-ydpi="300" sodipodi:nodetypes="ccccc" class="st1" d="
			M898.7-69.3L589.1-325.7L436.6-314L717-56.5C814.6-55.1,837.7-55.2,898.7-69.3L898.7-69.3z"/>
		<path id="path8766-8-82-7-0-3" inkscape:connector-curvature="0" inkscape:export-xdpi="300" inkscape:export-ydpi="300" d="
			M1084.2-287c-21.2-0.7-42.9,8.2-61,26.1c-24.1,23.8-42.8,62.9-50.9,117.2l0.1-0.6C946.3-21,893.8,149.9,825,281.8l-1.4,2.7l0.4,3
			c9.3,75,78.4,127.4,164.4,148.8l4.4,1.1l3.6-2.7c76.3-56.9,116.2-157.7,140.5-261.5c24.3-103.7,32.7-211.2,43.6-282l0.1-0.6l0-0.6
			c2.9-96.9-30.3-156.9-75.5-173C1098.3-285.5,1091.2-286.8,1084.2-287L1084.2-287z M1083.3-268c5.2,0.2,10.3,1.3,15.3,3.1
			c33.3,11.9,65.4,62,62.7,154c-11,72.1-19.4,178.2-43.2,279.7c-23.4,100.1-61.9,194.6-129.8,247.4
			c-77.8-20.6-135.7-66.8-144.8-128.7C912.9,153.6,965-16.4,991.2-140.4l0.1-0.3l0-0.3c7.6-51.3,25.3-86.5,45.4-106.3
			C1051.8-262.2,1067.7-268.7,1083.3-268L1083.3-268z"/>
		
			<path id="path8766-8-82-3-0" inkscape:connector-curvature="0" inkscape:export-xdpi="300" inkscape:export-ydpi="300" sodipodi:nodetypes="cccccc" class="st3" d="
			M1101.8-274c39.3,14,71.9,69.1,69.1,163.7c-21.9,142.9-33.8,428-180.3,537.2c-83.6-20.8-148.5-70.9-157.2-140.6
			c69.4-133.2,122.1-304.5,148.3-428.6C997.5-248,1054.5-290.9,1101.8-274L1101.8-274z"/>
		
			<linearGradient id="path13325-2-2-0-6-7_1_" gradientUnits="userSpaceOnUse" x1="661.9411" y1="359.3656" x2="660.3154" y2="349.7664" gradientTransform="matrix(-27.9648 -9.5016 9.5016 -27.9648 16191.4775 16056.2383)">
			<stop  offset="0" style="stop-color:#C3F13B"/>
			<stop  offset="1" style="stop-color:#C3F13B;stop-opacity:0"/>
		</linearGradient>
		
			<path id="path13325-2-2-0-6-7" inkscape:connector-curvature="0" inkscape:export-xdpi="300" inkscape:export-ydpi="300" sodipodi:nodetypes="ccccccccccccscccccccccc" class="st4" d="
			M1101.6-273.8c29.9,10.7,56,45.2,65.5,102.7c-8.4-12.9-17.6-24.9-26.4-29.9c-22.6-12.9-30.8-19-30.8-19s28.9,37.8,30.3,45.8
			c1.4,8,1.5,13,1.5,13s-10.9-27.5-24.1-36.7c-13.2-9.2-16.5-12.6-16.5-12.6c28.1,80,50.9,124.5,14.1,217.7
			c29.7-131.6-20.6-190.8-36.3-212.8c-0.2,64.4,6.1,124.9-9.3,187.9c-6.5-59,11.9-131.4-14-188.1c-2.8-4.1-30.4,127.5-41.3,159.6
			C1003.6-14.2,995-2.6,995-2.6s17.2-97.8,21.5-127.4c4.4-29.6,20.4-85.8,20.4-85.8s-12.3,11.9-26.7,22c-6,4.3-15.3,15.4-24,26.8
			c2.9-12.6,6.5-24.1,10.6-34.6c14.3-13.4,29.5-29.2,29.5-29.2s-4.7-3-15,0.1C1036.3-270.6,1070.9-284.8,1101.6-273.8L1101.6-273.8z
			"/>
		<path id="path5524" inkscape:connector-curvature="0" inkscape:export-xdpi="300" inkscape:export-ydpi="300" d="M1136.2,25.7
			c36.4,15.4,53.5,57.6,38.2,94c-15.4,36.4-57.6,53.5-94,38.2c-36.4-15.4-53.5-57.6-38.1-94C1057.7,27.5,1099.8,10.3,1136.2,25.7
			L1136.2,25.7z"/>
		
			<path id="path13421-0-1-6-4-8" inkscape:connector-curvature="0" inkscape:export-xdpi="300" inkscape:export-ydpi="300" class="st5" d="
			M1130.9,38.3c-29.6-12.5-63.5,1.3-76,30.9c-12.5,29.6,1.3,63.5,30.8,76c29.6,12.5,63.6-1.2,76.1-30.8
			C1174.3,84.8,1160.5,50.8,1130.9,38.3L1130.9,38.3z"/>
		<path id="path13421-8-0-3-4-4-3" inkscape:connector-curvature="0" d="M1062.6,74c-8.3,19.6,0.9,42.2,20.5,50.5
			c19.6,8.3,42.2-0.9,50.5-20.5s-0.9-42.2-20.5-50.5C1093.5,45.3,1070.9,54.4,1062.6,74z"/>
		<path id="path13421-8-6-5-1-3-0-6" inkscape:connector-curvature="0" class="st5" d="M1052.5,78.7c-5.1,12.1,0.5,26.1,12.7,31.2
			c12.1,5.1,26.1-0.5,31.2-12.7c5.1-12.1-0.5-26.1-12.7-31.2l0,0C1071.6,60.9,1057.6,66.6,1052.5,78.7
			C1052.5,78.7,1052.5,78.7,1052.5,78.7L1052.5,78.7z"/>
		<path id="path5528" inkscape:connector-curvature="0" inkscape:export-xdpi="300" inkscape:export-ydpi="300" d="M1011.4,1
			c29,26.9,30.7,72.4,3.9,101.4c-26.9,29-72.4,30.7-101.4,3.9c-29-26.9-30.7-72.4-3.9-101.4C936.9-24.1,982.4-25.9,1011.4,1
			L1011.4,1z"/>
		
			<path id="path13421-7-1-2-6-9-7" inkscape:connector-curvature="0" inkscape:export-xdpi="300" inkscape:export-ydpi="300" class="st5" d="
			M1002,11.1c-23.6-21.8-60.1-20.4-82,3.1c-21.8,23.6-20.4,60.1,3.1,82c23.6,21.8,60.2,20.5,82-3.1
			C1027.1,69.5,1025.6,32.9,1002,11.1L1002,11.1z"/>
		<path id="path13421-8-3-6-3-8-3-3" inkscape:connector-curvature="0" d="M925.7,21.4c-14.5,15.6-13.5,40,2.1,54.4l0,0
			c15.6,14.5,40,13.5,54.4-2.1s13.5-40-2.1-54.4l0,0C964.5,4.8,940.1,5.8,925.7,21.4z"/>
		<path id="path13421-8-6-1-3-8-7-1-8" inkscape:connector-curvature="0" class="st5" d="M914.6,22.4c-8.9,9.6-8.4,24.7,1.3,33.6
			s24.7,8.4,33.6-1.3c8.9-9.6,8.4-24.7-1.3-33.6S923.5,12.7,914.6,22.4z"/>
		<path id="path5510" inkscape:connector-curvature="0" inkscape:export-xdpi="300" inkscape:export-ydpi="300" d="M915,125.9
			l-7.6,0c-0.1,0.6,0.1,1,0,1.6c-7.5,37.6,1.6,68.3,19.6,90.4c18.3,22.4,45.1,36.2,72,41.2c26.9,5,53.9,1.3,72.5-12.3
			c18.6-13.7,28.1-37.7,19.5-70l-0.7-2.8l-2.9-0.1c-34.7-1.3-74.7,4.5-107.4,1.4c-16.4-1.5-30.8-5.2-41.9-12.8
			C926.9,154.9,918.8,143.7,915,125.9L915,125.9z"/>
		
			<path id="path13482-2-4-5-2-5" inkscape:connector-curvature="0" inkscape:export-xdpi="300" inkscape:export-ydpi="300" class="st5" d="
			M1083.5,181.6c6.4,28.2-1,47.3-16.6,58.8c-16.2,11.9-41.2,15.7-66.5,11c-25.2-4.7-50.5-17.7-67.4-38.4
			c-14.8-18.2-21.3-43.3-18-73.4c5,11.3,9.6,23.2,18.6,29.3c12.7,8.6,28.5,12.5,45.6,14.1C1012.3,186.1,1050.6,180.8,1083.5,181.6
			L1083.5,181.6z"/>
		
			<path id="path26576-0-2" inkscape:connector-curvature="0" inkscape:export-xdpi="300" inkscape:export-ydpi="300" class="st2" d="
			M624.8,455.4L459.1,193.6l13.1,269.7l-145.9,10.3L301.9-27.3l181.7-12.8l127.3,208.5L717-56.5l181.7-12.8l24.4,500.9l-145.9,10.3
			l-13.1-269.7L624.8,455.4z"/>
		
			<path id="path27017-9" inkscape:connector-curvature="0" inkscape:export-xdpi="300" inkscape:export-ydpi="300" sodipodi:nodetypes="cccccccccccccccccccccccccccccccccccccccccccccccccccccccccccccccc" d="
			M591.8-334.1l-163.7,12.6l10.3,223.6L175.1-306.4L8-295.9L1.1,141l2.3,2.4l317,335.8l2.7,2.8l3.8-0.3l145.9-10.2l7.9-0.6
			l-6.1-125.2C531.8,392,583.5,433.3,626,466.7l54.2-105.6c34.5,35.1,67.2,67.3,89.2,89.5l162.2-11.4l-25-512.5L591.8-334.1z
			 M586.4-317.3L877.8-76L719.9-64.9l-264-242.5L586.4-317.3z M445.7-294.6l261.4,240l-97.2,205.8L488-48.6
			c-9.8-10.1-22.1-23.4-32.6-35.1L445.7-294.6z M169.8-289.8C275-204.6,378.7-118,466.4-47.1L304.9-35.7L35.7-281.3L169.8-289.8z
			 M23.9-270.1L294-23.6L317.1,452C290.2,423.5,21.8,139.1,17.5,134.6L23.9-270.1z M890.9-60.5l23.6,484.6l-129.6,9l-14.3-292.9
			L624,438.7L449.4,163.1l8.2,168.6l-0.2,0.2l0.2,0.1l6,123.7c-13.5,0.9-116.2,8.2-129.5,9.1L310.5-19.7l168.7-11.8l132.6,217.2
			L722.4-48.7L890.9-60.5z M757.4,204.1L768.1,422l-80.3-76.2L757.4,204.1z M468.7,224.1l123.2,194.5l-118.3-94.7L468.7,224.1z"/>
		<path id="path5555" inkscape:connector-curvature="0" inkscape:export-xdpi="300" inkscape:export-ydpi="300" class="st6" d="
			M1076.6-250.7c4.3,0,8.1,1.3,11,3.4s4.8,5.2,4.8,8.6c0,3.4-1.9,6.5-4.8,8.6c-2.9,2.1-6.8,3.4-11,3.4c-4.3,0-8.2-1.3-11-3.4
			c-2.9-2.1-4.8-5.2-4.8-8.7c0-3.4,1.9-6.5,4.8-8.6C1068.4-249.4,1072.3-250.7,1076.6-250.7L1076.6-250.7z"/>
		
			<path id="path13396-4-7-6-0-8" inkscape:connector-curvature="0" inkscape:export-xdpi="300" inkscape:export-ydpi="300" class="st7" d="
			M1076.6-247.9c-3.7,0-7,1.1-9.4,2.8s-3.7,4-3.7,6.4c0,2.4,1.3,4.7,3.7,6.4c2.3,1.7,5.7,2.8,9.4,2.8s7-1.1,9.4-2.8
			c2.3-1.7,3.7-4,3.7-6.4c0-2.4-1.3-4.7-3.7-6.4C1083.6-246.8,1080.3-247.9,1076.6-247.9L1076.6-247.9z"/>
		<path id="path47548" inkscape:connector-curvature="0" inkscape:export-xdpi="300" inkscape:export-ydpi="300" d="M493.4-456
			l-9.1,0.6l-41.2,2.8l2.7,74.2L426-377l-2.7-74.2l-50.3,3.4l3.7,100.1l17.9,14.8l103-7L493.4-456z M476.5-437.2l3,81l-79.2,5.4
			l-6.4-5.2l-2.8-75.3l15.2-1l2.4,66.3l8.8,7.3L464-362l-2.7-74.2L476.5-437.2z"/>
		<path id="path47544" inkscape:connector-curvature="0" inkscape:export-xdpi="300" inkscape:export-ydpi="300" d="M361.3-446.9
			l-9.1,0.6l-82.5,5.6L253.4-424l3.1,84.6l17.9,14.8l91.1-6.2l-1.5-41.9l-58.5,4l-1.2-32.3l58.5-4L361.3-446.9z M344.4-428.2
			l0.2,6.8l-50.4,3.4l-7.8,7.9l1.9,52.1l8.8,7.3l49.9-3.4l0.2,6.8l-67.3,4.6l-6.3-5.2l-2.5-69.2l6.4-6.6L344.4-428.2z"/>
		<path id="path47542" inkscape:connector-curvature="0" inkscape:export-xdpi="300" inkscape:export-ydpi="300" d="M239.8-438.6
			l-9.1,0.6l-41.2,2.8l2.7,74.2l-19.8,1.4l-2.7-74.2l-50.3,3.4l3.7,100.1l17.9,14.8l103-7L239.8-438.6z M222.9-419.8l3,81l-79.2,5.4
			l-6.4-5.2l-2.8-75.3l15.2-1l2.4,66.3l8.8,7.3l46.3-3.2l-2.7-74.2L222.9-419.8z"/>
		<path id="path47540" inkscape:connector-curvature="0" inkscape:export-xdpi="300" inkscape:export-ydpi="300" d="M107.9-430.4
			l-9.1,0.6l-82.5,5.6L0-407.5l3.1,84.6L21-308.1l91.1-6.2l-1.6-41.9l-58.5,4L51-384.5l58.5-4L107.9-430.4z M91-411.7l0.2,6.8
			l-50.4,3.5l-7.8,8l1.9,52.1l8.8,7.3l49.9-3.4l0.2,6.8l-67.3,4.6l-6.3-5.2l-2.5-69.2l6.4-6.6L91-411.7z"/>
		<path id="path13297-1-5" inkscape:connector-curvature="0" d="M107.4-429.9l-90.9,6.2l-16,16.4l3.1,84.2l17.6,14.5l90.4-6.2
			l-1.5-40.9l-58.5,4L50.4-385l58.5-4L107.4-429.9z M91.5-412.2l0.3,7.8L41-401l-7.5,7.7l1.9,51.7l8.5,7l3.3-0.2l46.9-3.2l0.3,7.8
			l-67.9,4.6l-6.7-5.5l-2.6-69.6l6.7-6.9L91.5-412.2z"/>
		<path id="path13297-1" inkscape:connector-curvature="0" inkscape:export-xdpi="300" inkscape:export-ydpi="300" class="st3" d="
			M46.6-343.1l55.5-3.8l0.9,24.4l-79.2,5.4l-12.1-10L8.9-404l11.4-11.6l79.2-5.4l0.9,24.4l-55.5,3.8L42-390l1.6,44.4L46.6-343.1z"/>
		<path id="path13299-1" inkscape:connector-curvature="0" inkscape:export-xdpi="300" inkscape:export-ydpi="300" class="st3" d="
			M160.8-424.9l2.6,71.5l3,2.5l34.4-2.3l-2.7-74.2l32.8-2.2l3.6,98.6l-91.1,6.2l-12.1-10l-3.2-87.7L160.8-424.9z"/>
		<path id="path13303-6" inkscape:connector-curvature="0" inkscape:export-xdpi="300" inkscape:export-ydpi="300" class="st3" d="
			M414.9-441.8l2.6,71.5l3,2.5l34.4-2.3l-2.7-74.2l32.8-2.2l3.6,98.6l-91.1,6.2l-12.1-10l-3.2-87.7L414.9-441.8z"/>
		<path id="path13305-0-2" inkscape:connector-curvature="0" d="M667.7-468.6l-74.5,5.4l-3.7,0.3l-82.5,6l4.3,116.3l8.7-0.6l41.1-3
			l-2.8-74.9l14.3-1l2.7,74.9l49.8-3.6l-2.8-74.9l14.3-1l2.8,74.9l49.8-3.6L685.5-454L667.7-468.6z M662.3-451.5l6.7,5.5l2.8,76.8
			l-16.4,1.2l-2.5-67.3l-8.6-7l-37.4,2.7l-0.3-7.9L662.3-451.5z M587.9-446.1l17.4,14l2.5,67.6l-16.4,1.2l-2.5-67.3l-8.6-7
			l-39.4,2.8l2.8,74.9l-16.4,1.2l-3-82.8L587.9-446.1z"/>
		<path id="path13305-0" inkscape:connector-curvature="0" inkscape:export-xdpi="300" inkscape:export-ydpi="300" class="st3" d="
			M519.3-349.7l-3.7-99.5l74.9-5.4l7.8,6.3l-0.3-6.8l66.9-4.8l12.3,10.1l3.3,88.6l-33.1,2.4l-2.7-72.2l-3.1-2.5l-28,2l2.8,74.9
			l-33.1,2.4l-2.7-72.2l-3.1-2.5l-28,2l2.8,74.9L519.3-349.7z"/>
		<path id="path8488" inkscape:connector-curvature="0" class="st8" d="M934.1-474.6l0.3,7.3l-67.6,4.6l1.2,32.4l59.7-3.5l0.2,6.5
			l-59.7,3.5l1.2,33.8l67.6-4.7l0.3,7.3l-51.6,3.5v0l-32.1,2.2l-3.2-87.3L934.1-474.6z"/>
		<path id="path13326-1" inkscape:connector-curvature="0" inkscape:export-xdpi="300" inkscape:export-ydpi="300" class="st3" d="
			M942.5-483L840-476l3.9,106.2l31.7-2.2v0l70.8-4.9l-1-26.3l-67.6,4.7l-0.5-14.7l59.7-3.5l-0.9-25.4l-59.7,3.5l-0.5-13.6l67.6-4.6
			L942.5-483z"/>
		
			<path id="path13297-1-6" inkscape:connector-curvature="0" inkscape:export-xdpi="300" inkscape:export-ydpi="300" class="st3" d="
			M300-359.6l55.5-3.8l0.9,24.4l-79.2,5.4l-12.1-10l-2.8-76.9l11.4-11.6l79.2-5.4l0.9,24.4l-55.5,3.8l-2.8,2.9l1.6,44.4L300-359.6z"
			/>
		<path id="path13307-1-1" inkscape:connector-curvature="0" class="st3" d="M805.7-474.6l-102.9,7l4,108.7l35.8-2.4l10-0.7
			l57.1-3.9l12.5-12.8l-1.3-36.6l-7.8-5.3l7.4-6.4l-1.4-36.6L805.7-474.6z M780.3-445.9l3.4,2.8l0.4,10.6l-3.1,3.2l-40.7,3.1
			l-0.6-16.9L780.3-445.9z M781.7-407.5l3.4,2.7l0.4,10.6l-3.1,3.2l-30.6,2.1l-10,0.5l-0.6-16.1L781.7-407.5z"/>
		<path id="path13307-1-9-5" inkscape:connector-curvature="0" class="st9" d="M805.7-474.6l-102.9,7l4,108.7l35.8-2.4l10-0.7
			l57.1-3.9l12.5-12.8l-1.3-36.6l-7.8-5.3l7.4-6.4l-1.4-36.6L805.7-474.6z M780.3-445.9l3.4,2.8l0.4,10.6l-3.1,3.2l-40.7,3.1
			l-0.6-16.9L780.3-445.9z M781.7-407.5l3.4,2.7l0.4,10.6l-3.1,3.2l-30.6,2.1l-10,0.5l-0.6-16.1L781.7-407.5z"/>
		<path id="path13307-1" inkscape:connector-curvature="0" class="st3" d="M805.7-474.6l-102.9,7l4,108.7l35.8-2.4l10-0.7l57.1-3.9
			l12.5-12.8l-1.3-36.6l-7.8-5.3l7.4-6.4l-1.4-36.6L805.7-474.6z M780.3-445.9l3.4,2.8l0.4,10.6l-3.1,3.2l-40.7,3.1l-0.6-16.9
			L780.3-445.9z M781.7-407.5l3.4,2.7l0.4,10.6l-3.1,3.2l-30.6,2.1l-10,0.5l-0.6-16.1L781.7-407.5z"/>
		<path id="path13307-1-9" inkscape:connector-curvature="0" d="M807.2-479.1l-1.8,0.1l-107.2,7.3l4.3,117.5l40.3-2.8l10-0.7l58.7-4
			l15-15.4l-1.5-40.7l-4.9-3.3l4.7-4l-1.5-40.7L807.2-479.1z M804.3-470.1l10.5,8.7l1.2,32.5l-10.2,8.7l10.8,7.3l1.2,32.5l-10,10.3
			l-55.4,3.8l-10,0.7l-31.3,2.1l-3.7-99.9L804.3-470.1z M781.7-450.4l-1.7,0.1l-44.9,3.1l0.9,25.7l46.9-3.6l5.6-5.7l-0.5-14.5
			L781.7-450.4z M778.8-441.4l0.5,0.4l0.2,6.7l-0.7,0.7l-34.4,2.6l-0.3-8.1L778.8-441.4z M783.1-412l-1.8,0.1l-44.9,3.4l0.9,24.8
			l14.6-0.8l32.3-2.2l5.6-5.8l-0.5-14.5L783.1-412z M780.3-403l0.5,0.4l0.2,6.8l-0.6,0.7l-28.9,2l-5.5,0.3l-0.3-7.4L780.3-403z"/>
		<path id="path13326-1-6" inkscape:connector-curvature="0" d="M946.8-487.8l-4.6,0.3l-106.9,7.3l4.2,115.2l31.6-2.2v0l80-5.5
			l-1.3-35.2l-67.6,4.7l-0.2-5.7l59.7-3.5l-1.3-34.4l-59.7,3.5l-0.2-4.7l67.6-4.6L946.8-487.8z M938.2-478.2l0.6,17.3l-67.6,4.6
			l0.8,22.5l59.7-3.5l0.6,16.4l-59.7,3.5l0.9,23.7l67.6-4.7l0.6,17.3l-61.7,4.2v0l-31.9,2.2l-3.6-97.2L938.2-478.2z"/>
		<path id="path13311-0" inkscape:connector-curvature="0" inkscape:export-xdpi="300" inkscape:export-ydpi="300" class="st3" d="
			M1016-423.6l-0.6-16.5l29.4-2l3-3.1l-0.6-15.7l-3.3-2.7l-39.2,2.7l2.9,79.5l-34.8,2.4l-3.9-105.6l99.8-6.8l13,10.7l1.7,46.3
			l-12.2,12.5l-14.6,1l27.9,34.3l-37.5,2.6L1016-423.6z"/>
		<path id="path13311-0-0" inkscape:connector-curvature="0" d="M1066.2-496.8l-106.6,7.3l4.2,115.6l44.7-3.1l-1.6-44.8l0.8,1.1
			l32.9,41.5l49.7-3.4l-27.9-34.3l7-0.5l15-15.4l-1.9-50.6L1066.2-496.8z M1063-486.6l9.8,8.1l1.5,41.9l-9.4,9.6l-22.3,1.5
			l27.9,34.3l-25.3,1.7l-28.6-36.1l-0.4-10.1l26.5-1.8l5.9-6l-0.7-20l-6.5-5.4l-46,3.1l2.9,79.5l-24.9,1.7l-3.5-95.7L1063-486.6z
			 M1038.1-458.7L1038.1-458.7l0.4,11.3l-0.2,0.2l-32.2,2.2l-0.4-11.5L1038.1-458.7z"/>
	</g>
</g>
</svg>
