<?xml version="1.0" encoding="utf-8"?>
<!-- Generator: Adobe Illustrator 21.1.0, SVG Export Plug-In . SVG Version: 6.00 Build 0)  -->
<svg version="1.1"
	 id="svg5148" inkscape:version="0.92.1 r15371" sodipodi:docname="Sarip-purewisdom1-LongCucumber.svg" xmlns:cc="http://creativecommons.org/ns#" xmlns:dc="http://purl.org/dc/elements/1.1/" xmlns:inkscape="http://www.inkscape.org/namespaces/inkscape" xmlns:rdf="http://www.w3.org/1999/02/22-rdf-syntax-ns#" xmlns:sodipodi="http://sodipodi.sourceforge.net/DTD/sodipodi-0.dtd" xmlns:svg="http://www.w3.org/2000/svg"
	 xmlns="http://www.w3.org/2000/svg" xmlns:xlink="http://www.w3.org/1999/xlink" x="0px" y="0px" viewBox="0 0 134.6 288"
	 style="enable-background:new 0 0 134.6 288;" xml:space="preserve">
<style type="text/css">
	.st0{fill:#27AE60;}
	.st1{fill:url(#path13325-0-6-1_1_);}
	.st2{fill:#E2E531;}
	.st3{fill:#FFFFFF;}
	.st4{fill:none;stroke:#000000;stroke-width:1.5245;}
	.st5{fill:none;stroke:#000000;stroke-width:0.8706;}
</style>
<sodipodi:namedview  bordercolor="#666666" borderopacity="1.0" id="base" inkscape:current-layer="layer1" inkscape:cx="322.05959" inkscape:cy="308.02756" inkscape:document-units="mm" inkscape:pagecheckerboard="true" inkscape:pageopacity="0.0" inkscape:pageshadow="2" inkscape:window-height="705" inkscape:window-maximized="1" inkscape:window-width="1366" inkscape:window-x="-8" inkscape:window-y="-8" inkscape:zoom="0.7" pagecolor="#ffffff" showgrid="false">
	</sodipodi:namedview>
<g id="layer1" transform="translate(65.334932,-65.355544)" inkscape:groupmode="layer" inkscape:label="Layer 1">
	<path id="path13323-0-3-7-6" inkscape:connector-curvature="0" d="M33.3,65.5C27.1,66.3,21,69.6,16,75.1
		C9.3,82.4,4.2,93.6,1.8,108.6l0.1-0.3c-16.2,63.1-41.8,128.3-64,191.6l0,0.1l0,0.1c-4.3,14.1-4.1,25.5-0.6,34.2
		c3.5,8.7,10.3,14.5,18.3,17.2c15.8,5.4,35.8-0.4,47.5-15.1l0,0c0,0,0.1-0.1,0.1-0.2c0,0,0.1-0.1,0.1-0.1l3.2-4.1l-0.2-0.1
		C26.5,308,40,271.4,49.4,233.1c9.9-40.4,15.4-82.3,19.3-111.4l0-0.2l0-0.2c0.1-16.7-3-29.7-8.2-39.1c-5.2-9.4-12.7-15.2-21-16.5
		C37.4,65.3,35.3,65.3,33.3,65.5L33.3,65.5z M38.3,73c5.5,0.9,11.2,4.8,15.6,12.8c4.4,7.9,7.4,19.7,7.3,35.3
		c-3.8,29.1-9.3,70.5-19.1,110.3c-9.8,39.9-24.1,78-44.5,99.9l-0.3,0.4c-9.7,12.2-27,17-39.4,12.8c-6.2-2.1-11.1-6.2-13.8-12.9
		c-2.7-6.7-3.1-16.3,0.8-29.2c0,0,0,0,0,0c22.1-63.1,47.8-128.4,64.1-192.1l0-0.2l0-0.2c2.2-13.9,6.9-23.7,12.3-29.6
		C26.9,74.2,32.8,72.1,38.3,73L38.3,73z"/>
	<path id="path13323-0-3-7" inkscape:connector-curvature="0" sodipodi:nodetypes="cccccc" class="st0" d="M0.3,333.8
		C43,288.2,57.3,179.5,65,121.3c0.6-64.7-50.2-69.8-59.4-12.1c-16.3,63.5-41.9,128.7-64.1,191.9C-75,355.1-21,360.9,0.3,333.8
		L0.3,333.8z"/>
	
		<linearGradient id="path13325-0-6-1_1_" gradientUnits="userSpaceOnUse" x1="-186.0858" y1="456.727" x2="-187.7115" y2="447.1278" gradientTransform="matrix(-8.886 -2.8118 2.8122 -8.8847 -2898.0586 3601.9302)">
		<stop  offset="0" style="stop-color:#C3F13B"/>
		<stop  offset="1" style="stop-color:#C3F13B;stop-opacity:0"/>
	</linearGradient>
	<path id="path13325-0-6-1" inkscape:connector-curvature="0" sodipodi:nodetypes="ccccccccccccscccccccccc" class="st1" d="
		M42.1,70.1c9.5,3.2,18,13.9,21.3,32c-2.7-4-5.7-7.7-8.5-9.3C47.7,88.9,45,87,45,87s9.4,11.7,9.9,14.2c0.5,2.5,0.6,4.1,0.6,4.1
		s-3.6-8.6-7.8-11.4c-4.2-2.8-5.3-3.9-5.3-3.9c9.4,25.1,16.9,38.9,5.9,68.6c8.5-41.7-7.8-60.1-12.9-66.9c0.4,20.3,2.7,39.3-1.7,59.3
		c-2.4-18.6,2.9-41.5-5.6-59.2c-0.9-1.3-8.7,40.4-12,50.6c-3.2,10.2-5.9,13.9-5.9,13.9s4.8-31,5.9-40.3c1.2-9.4,5.9-27.2,5.9-27.2
		s-3.8,3.8-8.3,7.1c-1.9,1.4-4.7,4.9-7.4,8.6c0.8-4,1.9-7.7,3.1-11c4.4-4.3,9.1-9.4,9.1-9.4s-1.5-0.9-4.7,0.1
		C21.5,71.5,32.3,66.9,42.1,70.1L42.1,70.1z"/>
	
		<ellipse id="path13396-9-4-0" transform="matrix(0.9998 -2.054846e-02 2.054846e-02 0.9998 -1.647 0.7203)" class="st2" cx="34.2" cy="80.5" rx="5" ry="3.7"/>
	
		<ellipse id="path13421-6-9-6" transform="matrix(0.3699 -0.9291 0.9291 0.3699 -142.867 160.1193)" class="st3" cx="46.6" cy="185.4" rx="20.5" ry="20.5"/>
	
		<ellipse id="path13421-7-4-6-8" transform="matrix(0.6641 -0.7477 0.7477 0.6641 -130.201 58.8499)" class="st3" cx="0.4" cy="174.3" rx="20.5" ry="20.5"/>
	<path id="path13421-6-9-6-3" inkscape:connector-curvature="0" d="M55,164.4c11.6,4.6,17.3,17.8,12.7,29.4
		C63,205.3,49.8,211,38.2,206.4C26.7,201.8,21,188.6,25.6,177C30.2,165.4,43.4,159.7,55,164.4L55,164.4z M53.4,168.4
		c-9.4-3.7-20,0.8-23.8,10.2c-3.8,9.4,0.8,20,10.2,23.8c9.4,3.7,20-0.8,23.8-10.2S62.8,172.1,53.4,168.4z"/>
	
		<ellipse id="path13421-8-2-6-0" transform="matrix(0.3699 -0.9291 0.9291 0.3699 -144.1701 156.5916)" cx="43.4" cy="184.6" rx="12.2" ry="12.2"/>
	
		<ellipse id="path13421-8-6-7-5-6" transform="matrix(0.3699 -0.9291 0.9291 0.3699 -148.7129 149.553)" class="st3" cx="35.9" cy="184.4" rx="7.5" ry="7.5"/>
	
		<ellipse id="path13421-7-4-6-8-5" transform="matrix(0.6641 -0.7477 0.7477 0.6641 -130.201 58.8499)" class="st4" cx="0.4" cy="174.3" rx="20.5" ry="20.5"/>
	
		<ellipse id="path13421-8-3-52-9-4" transform="matrix(0.6641 -0.7477 0.7477 0.6641 -129.7442 56.1422)" cx="-2.4" cy="172.5" rx="12.2" ry="12.2"/>
	
		<ellipse id="path13421-8-6-1-4-1-5" transform="matrix(0.6641 -0.7477 0.7477 0.6641 -130.0634 50.0341)" class="st3" cx="-9.4" cy="169.8" rx="7.5" ry="7.5"/>
	<path id="path13482-3-9-51" inkscape:connector-curvature="0" sodipodi:nodetypes="ccc" class="st3" d="M40.5,212.6
		c-21.6-0.4-50.4,8.4-55.9-14.9C-24.4,245.1,54.6,252.1,40.5,212.6z"/>
	<path id="path13396-9-4-0-4" inkscape:connector-curvature="0" class="st0" d="M34.1,76.3c1.5,0,2.8,0.4,3.8,1.1
		c1,0.7,1.7,1.8,1.7,2.9c0,1.2-0.6,2.3-1.6,3c-1,0.8-2.3,1.2-3.8,1.2c-1.5,0-2.8-0.4-3.8-1.1c-1-0.7-1.7-1.8-1.7-3
		c0-1.2,0.6-2.3,1.6-3C31.3,76.8,32.7,76.4,34.1,76.3z M34.2,77.3c-1.3,0-2.4,0.4-3.2,1.1c-0.8,0.6-1.2,1.4-1.2,2.2
		c0,0.8,0.5,1.6,1.3,2.2c0.8,0.6,2,0.9,3.3,0.9c1.3,0,2.4-0.4,3.2-1.1c0.8-0.6,1.2-1.4,1.2-2.2c0-0.8-0.5-1.6-1.3-2.2
		C36.6,77.6,35.4,77.3,34.2,77.3L34.2,77.3z"/>
	<path id="path13482-3-9-51-0" inkscape:connector-curvature="0" sodipodi:nodetypes="ccc" class="st5" d="M40.5,212.6
		c-21.6-0.4-50.4,8.4-55.9-14.9C-24.4,245.1,54.6,252.1,40.5,212.6z"/>
</g>
<path id="path13421-6-9-6-3_1_" inkscape:connector-curvature="0" d="M74.3,87c11.6,4.6,17.3,17.8,12.7,29.4
	c-4.6,11.6-17.8,17.3-29.4,12.7c-11.6-4.6-17.3-17.8-12.7-29.4C49.5,88.1,62.7,82.4,74.3,87L74.3,87z M72.7,91
	c-9.4-3.7-20,0.8-23.8,10.2c-3.8,9.4,0.8,20,10.2,23.8c9.4,3.7,20-0.8,23.8-10.2S82.1,94.8,72.7,91z"/>
</svg>
